# xmcd
#
# Track frame offsets:
#	150
#	18627
#	37525
#	63420
#	91629
#	113376
#	139652
#	157763
#	191217
#	209964
#
# Disc length: 3177
#
# Revision: 1
# Processed by: cddbd v1.5.1PL0 Copyright (c) Steve Scherf et al.
# Submitted via: FreeRIP 2.21 
# Normalized: r0:TRMNUM
#
DISCID=7a0c670a
DTITLE=Tony McNaboe - Destination
DYEAR=2003
DGENRE=Jazz+Funk
TTITLE0=Destination
TTITLE1=Closer
TTITLE2=Brighter Days
TTITLE3=Charity
TTITLE4=Your Favorite Song
TTITLE5=Days Like These
TTITLE6=Old Sweet Songs
TTITLE7=Tell me Why the Road Turns
TTITLE8=Shoulder to Lean On
TTITLE9=Gone (Departure)
EXTD=Motown Funky Blues.  Pre-Thriller Micheal Jackson\nLocal Portland, Maine Favorite
EXTT0=
EXTT1=
EXTT2=
EXTT3=
EXTT4=
EXTT5=
EXTT6=
EXTT7=
EXTT8=
EXTT9=
PLAYORDER=
